<svg id="visual" viewBox="0 0 900 600" width="900" height="600" xmlns="http://www.w3.org/2000/svg" xmlns:xlink="http://www.w3.org/1999/xlink" version="1.1"><rect width="900" height="600" fill="#f8f7f4"></rect><g><g transform="translate(49 344)"><path d="M9 -3C10.1 0.5 8.4 4.8 5.2 7.2C2 9.5 -2.7 9.8 -5.6 7.7C-8.6 5.5 -9.9 1 -8.6 -2.7C-7.4 -6.4 -3.7 -9.2 0.1 -9.2C3.9 -9.2 7.9 -6.5 9 -3Z" fill="#715DF2"></path></g><g transform="translate(843 301)"><path d="M8.2 -2.5C9.4 1 8.2 5.4 5.5 7.4C2.7 9.3 -1.7 8.8 -4.6 6.6C-7.5 4.4 -8.9 0.6 -7.9 -2.7C-6.9 -5.9 -3.4 -8.4 0 -8.4C3.5 -8.4 7 -5.9 8.2 -2.5Z" fill="#715DF2"></path></g><g transform="translate(47 189)"><path d="M8.2 -2.6C9.2 0.4 7.6 4.3 4.7 6.4C1.8 8.5 -2.3 8.7 -5.2 6.7C-8 4.8 -9.6 0.6 -8.5 -2.6C-7.4 -5.7 -3.7 -7.8 -0.1 -7.8C3.6 -7.8 7.2 -5.6 8.2 -2.6Z" fill="#715DF2"></path></g><g transform="translate(250 94)"><path d="M8.8 -2.8C10 0.9 8.6 5.4 5.5 7.7C2.4 10 -2.5 10.1 -5.8 7.8C-9 5.4 -10.6 0.7 -9.4 -3C-8.2 -6.7 -4.1 -9.4 -0.1 -9.3C3.8 -9.3 7.6 -6.5 8.8 -2.8Z" fill="#715DF2"></path></g><g transform="translate(256 339)"><path d="M9 -2.5C10.3 0.8 8.8 5.4 5.6 7.8C2.4 10.1 -2.4 10.1 -5.3 7.8C-8.2 5.6 -9.2 1.2 -8 -2.2C-6.8 -5.6 -3.4 -7.8 0.3 -7.9C3.9 -8 7.8 -5.9 9 -2.5Z" fill="#715DF2"></path></g><g transform="translate(105 573)"><path d="M8.1 -2.6C9.2 1 8.1 5.3 5.2 7.4C2.3 9.6 -2.3 9.6 -5.1 7.5C-7.9 5.3 -8.8 1.1 -7.6 -2.4C-6.5 -6 -3.2 -8.8 0.1 -8.8C3.5 -8.8 6.9 -6.1 8.1 -2.6Z" fill="#715DF2"></path></g><g transform="translate(789 505)"><path d="M8.3 -2.5C9.5 1 8.3 5.4 5.3 7.5C2.4 9.7 -2.3 9.6 -5.1 7.5C-7.8 5.3 -8.7 1.1 -7.6 -2.3C-6.4 -5.7 -3.2 -8.3 0.2 -8.4C3.5 -8.5 7.1 -6 8.3 -2.5Z" fill="#715DF2"></path></g><g transform="translate(205 408)"><path d="M7.6 -2.1C8.7 1.2 7.9 5.4 5.3 7.3C2.8 9.1 -1.5 8.5 -4.4 6.4C-7.3 4.2 -8.9 0.4 -7.9 -2.6C-6.9 -5.6 -3.5 -7.8 -0.1 -7.7C3.2 -7.7 6.4 -5.4 7.6 -2.1Z" fill="#715DF2"></path></g><g transform="translate(560 291)"><path d="M9.1 -3.1C10.2 0.4 8.4 4.7 5.1 7.1C1.9 9.5 -2.9 10 -5.7 8C-8.5 5.9 -9.3 1.3 -8 -2.4C-6.8 -6.2 -3.4 -9 0.3 -9.1C4 -9.3 8 -6.6 9.1 -3.1Z" fill="#715DF2"></path></g><g transform="translate(753 209)"><path d="M8.9 -3C10.1 0.8 8.6 5.3 5.6 7.4C2.5 9.5 -2 9.3 -5.1 7C-8.2 4.8 -9.8 0.6 -8.7 -3.1C-7.6 -6.8 -3.8 -9.8 0 -9.8C3.8 -9.8 7.7 -6.8 8.9 -3Z" fill="#715DF2"></path></g></g></svg>