<svg id="visual" viewBox="0 0 960 540" width="960" height="540" xmlns="http://www.w3.org/2000/svg" xmlns:xlink="http://www.w3.org/1999/xlink" version="1.1"><path d="M0 44L14.5 39.5C29 35 58 26 87.2 23.3C116.3 20.7 145.7 24.3 174.8 24.3C204 24.3 233 20.7 262 23.3C291 26 320 35 349 35C378 35 407 26 436.2 23.3C465.3 20.7 494.7 24.3 523.8 24.3C553 24.3 582 20.7 611 18.8C640 17 669 17 698 20.7C727 24.3 756 31.7 785.2 34.3C814.3 37 843.7 35 872.8 35.8C902 36.7 931 40.3 945.5 42.2L960 44L960 0L945.5 0C931 0 902 0 872.8 0C843.7 0 814.3 0 785.2 0C756 0 727 0 698 0C669 0 640 0 611 0C582 0 553 0 523.8 0C494.7 0 465.3 0 436.2 0C407 0 378 0 349 0C320 0 291 0 262 0C233 0 204 0 174.8 0C145.7 0 116.3 0 87.2 0C58 0 29 0 14.5 0L0 0Z" fill="#dce1e9"></path><path d="M0 87L14.5 85.3C29 83.7 58 80.3 87.2 75.8C116.3 71.3 145.7 65.7 174.8 65.7C204 65.7 233 71.3 262 78.7C291 86 320 95 349 95.8C378 96.7 407 89.3 436.2 85.7C465.3 82 494.7 82 523.8 75.7C553 69.3 582 56.7 611 58.5C640 60.3 669 76.7 698 85.7C727 94.7 756 96.3 785.2 91.8C814.3 87.3 843.7 76.7 872.8 71.3C902 66 931 66 945.5 66L960 66L960 42L945.5 40.2C931 38.3 902 34.7 872.8 33.8C843.7 33 814.3 35 785.2 32.3C756 29.7 727 22.3 698 18.7C669 15 640 15 611 16.8C582 18.7 553 22.3 523.8 22.3C494.7 22.3 465.3 18.7 436.2 21.3C407 24 378 33 349 33C320 33 291 24 262 21.3C233 18.7 204 22.3 174.8 22.3C145.7 22.3 116.3 18.7 87.2 21.3C58 24 29 33 14.5 37.5L0 42Z" fill="#cad4e6"></path><path d="M0 293L14.5 284C29 275 58 257 87.2 239.8C116.3 222.7 145.7 206.3 174.8 195.5C204 184.7 233 179.3 262 187.5C291 195.7 320 217.3 349 229C378 240.7 407 242.3 436.2 226C465.3 209.7 494.7 175.3 523.8 168.2C553 161 582 181 611 186.5C640 192 669 183 698 175.8C727 168.7 756 163.3 785.2 158.8C814.3 154.3 843.7 150.7 872.8 156.8C902 163 931 179 945.5 187L960 195L960 64L945.5 64C931 64 902 64 872.8 69.3C843.7 74.7 814.3 85.3 785.2 89.8C756 94.3 727 92.7 698 83.7C669 74.7 640 58.3 611 56.5C582 54.7 553 67.3 523.8 73.7C494.7 80 465.3 80 436.2 83.7C407 87.3 378 94.7 349 93.8C320 93 291 84 262 76.7C233 69.3 204 63.7 174.8 63.7C145.7 63.7 116.3 69.3 87.2 73.8C58 78.3 29 81.7 14.5 83.3L0 85Z" fill="#b8c8e3"></path><path d="M0 325L14.5 316C29 307 58 289 87.2 270.2C116.3 251.3 145.7 231.7 174.8 219C204 206.3 233 200.7 262 208.7C291 216.7 320 238.3 349 254.7C378 271 407 282 436.2 266.7C465.3 251.3 494.7 209.7 523.8 203.3C553 197 582 226 611 229.7C640 233.3 669 211.7 698 200C727 188.3 756 186.7 785.2 187.5C814.3 188.3 843.7 191.7 872.8 197C902 202.3 931 209.7 945.5 213.3L960 217L960 193L945.5 185C931 177 902 161 872.8 154.8C843.7 148.7 814.3 152.3 785.2 156.8C756 161.3 727 166.7 698 173.8C669 181 640 190 611 184.5C582 179 553 159 523.8 166.2C494.7 173.3 465.3 207.7 436.2 224C407 240.3 378 238.7 349 227C320 215.3 291 193.7 262 185.5C233 177.3 204 182.7 174.8 193.5C145.7 204.3 116.3 220.7 87.2 237.8C58 255 29 273 14.5 282L0 291Z" fill="#a6bbdf"></path><path d="M0 347L14.5 339.7C29 332.3 58 317.7 87.2 305C116.3 292.3 145.7 281.7 174.8 270C204 258.3 233 245.7 262 249.3C291 253 320 273 349 290.2C378 307.3 407 321.7 436.2 309C465.3 296.3 494.7 256.7 523.8 252.2C553 247.7 582 278.3 611 282C640 285.7 669 262.3 698 250.7C727 239 756 239 785.2 236.2C814.3 233.3 843.7 227.7 872.8 229.3C902 231 931 240 945.5 244.5L960 249L960 215L945.5 211.3C931 207.7 902 200.3 872.8 195C843.7 189.7 814.3 186.3 785.2 185.5C756 184.7 727 186.3 698 198C669 209.7 640 231.3 611 227.7C582 224 553 195 523.8 201.3C494.7 207.7 465.3 249.3 436.2 264.7C407 280 378 269 349 252.7C320 236.3 291 214.7 262 206.7C233 198.7 204 204.3 174.8 217C145.7 229.7 116.3 249.3 87.2 268.2C58 287 29 305 14.5 314L0 323Z" fill="#94afdc"></path><path d="M0 384L14.5 378.7C29 373.3 58 362.7 87.2 348.3C116.3 334 145.7 316 174.8 310.7C204 305.3 233 312.7 262 321.7C291 330.7 320 341.3 349 352C378 362.7 407 373.3 436.2 362.5C465.3 351.7 494.7 319.3 523.8 317.7C553 316 582 345 611 344.2C640 343.3 669 312.7 698 301.8C727 291 756 300 785.2 300.8C814.3 301.7 843.7 294.3 872.8 294.3C902 294.3 931 301.7 945.5 305.3L960 309L960 247L945.5 242.5C931 238 902 229 872.8 227.3C843.7 225.7 814.3 231.3 785.2 234.2C756 237 727 237 698 248.7C669 260.3 640 283.7 611 280C582 276.3 553 245.7 523.8 250.2C494.7 254.7 465.3 294.3 436.2 307C407 319.7 378 305.3 349 288.2C320 271 291 251 262 247.3C233 243.7 204 256.3 174.8 268C145.7 279.7 116.3 290.3 87.2 303C58 315.7 29 330.3 14.5 337.7L0 345Z" fill="#82a3d8"></path><path d="M0 465L14.5 466.8C29 468.7 58 472.3 87.2 465.2C116.3 458 145.7 440 174.8 438.2C204 436.3 233 450.7 262 448C291 445.3 320 425.7 349 424C378 422.3 407 438.7 436.2 445.8C465.3 453 494.7 451 523.8 447.3C553 443.7 582 438.3 611 432C640 425.7 669 418.3 698 419.2C727 420 756 429 785.2 434.5C814.3 440 843.7 442 872.8 447.5C902 453 931 462 945.5 466.5L960 471L960 307L945.5 303.3C931 299.7 902 292.3 872.8 292.3C843.7 292.3 814.3 299.7 785.2 298.8C756 298 727 289 698 299.8C669 310.7 640 341.3 611 342.2C582 343 553 314 523.8 315.7C494.7 317.3 465.3 349.7 436.2 360.5C407 371.3 378 360.7 349 350C320 339.3 291 328.7 262 319.7C233 310.7 204 303.3 174.8 308.7C145.7 314 116.3 332 87.2 346.3C58 360.7 29 371.3 14.5 376.7L0 382Z" fill="#6f96d5"></path><path d="M0 525L14.5 523.2C29 521.3 58 517.7 87.2 513.2C116.3 508.7 145.7 503.3 174.8 502.5C204 501.7 233 505.3 262 507.2C291 509 320 509 349 510.7C378 512.3 407 515.7 436.2 517.3C465.3 519 494.7 519 523.8 517.3C553 515.7 582 512.3 611 511.5C640 510.7 669 512.3 698 514C727 515.7 756 517.3 785.2 517.3C814.3 517.3 843.7 515.7 872.8 515.7C902 515.7 931 517.3 945.5 518.2L960 519L960 469L945.5 464.5C931 460 902 451 872.8 445.5C843.7 440 814.3 438 785.2 432.5C756 427 727 418 698 417.2C669 416.3 640 423.7 611 430C582 436.3 553 441.7 523.8 445.3C494.7 449 465.3 451 436.2 443.8C407 436.7 378 420.3 349 422C320 423.7 291 443.3 262 446C233 448.7 204 434.3 174.8 436.2C145.7 438 116.3 456 87.2 463.2C58 470.3 29 466.7 14.5 464.8L0 463Z" fill="#5b8ad1"></path><path d="M0 541L14.5 541C29 541 58 541 87.2 541C116.3 541 145.7 541 174.8 541C204 541 233 541 262 541C291 541 320 541 349 541C378 541 407 541 436.2 541C465.3 541 494.7 541 523.8 541C553 541 582 541 611 541C640 541 669 541 698 541C727 541 756 541 785.2 541C814.3 541 843.7 541 872.8 541C902 541 931 541 945.5 541L960 541L960 517L945.5 516.2C931 515.3 902 513.7 872.8 513.7C843.7 513.7 814.3 515.3 785.2 515.3C756 515.3 727 513.7 698 512C669 510.3 640 508.7 611 509.5C582 510.3 553 513.7 523.8 515.3C494.7 517 465.3 517 436.2 515.3C407 513.7 378 510.3 349 508.7C320 507 291 507 262 505.2C233 503.3 204 499.7 174.8 500.5C145.7 501.3 116.3 506.7 87.2 511.2C58 515.7 29 519.3 14.5 521.2L0 523Z" fill="#457ecd"></path></svg>