<svg id="visual" viewBox="0 0 960 540" width="960" height="540" xmlns="http://www.w3.org/2000/svg" xmlns:xlink="http://www.w3.org/1999/xlink" version="1.1"><rect x="0" y="0" width="960" height="540" fill="#5e47ef"></rect><path d="M0 133L22.8 129.2C45.7 125.3 91.3 117.7 137 116.2C182.7 114.7 228.3 119.3 274 117.8C319.7 116.3 365.3 108.7 411.2 103C457 97.3 503 93.7 548.8 99.7C594.7 105.7 640.3 121.3 686 118.3C731.7 115.3 777.3 93.7 823 87.5C868.7 81.3 914.3 90.7 937.2 95.3L960 100L960 0L937.2 0C914.3 0 868.7 0 823 0C777.3 0 731.7 0 686 0C640.3 0 594.7 0 548.8 0C503 0 457 0 411.2 0C365.3 0 319.7 0 274 0C228.3 0 182.7 0 137 0C91.3 0 45.7 0 22.8 0L0 0Z" fill="#e6eaec" stroke-linecap="round" stroke-linejoin="miter"></path></svg>